<?xml version="1.0" standalone="no"?>
<svg xmlns="http://www.w3.org/2000/svg"
    width="33" height="37.5"
    viewBox="147 24 33 37.5">
<defs>
  <radialGradient id="gradient0" gradientUnits="objectBoundingBox" cx="0" cy="0" fx="0" fy="0" r="1.4142135623731" spreadMethod="pad">
   <stop stop-color="#414141" offset="0" stop-opacity="1"/>
   <stop stop-color="#3e3e3e" offset="1" stop-opacity="1"/>
  </radialGradient>
 </defs>
<path id="shape0" transform="matrix(0.951433136641509 0 0 0.951433136641509 148.481934767681 25.2727555815302)" fill="url(#gradient0)" fill-rule="evenodd" stroke-opacity="0" stroke="#000000" stroke-width="0" stroke-linecap="square" stroke-linejoin="bevel" d="M15.795 0L0.045 9.135L0 27.72L15.975 36.675L31.455 27.585L31.41 9.135Z"/><path id="shape01" transform="matrix(0.951433136641509 0 0 0.951433136641509 148.481934767681 25.2727555815302)" fill="none" stroke="#1f1f1f" stroke-width="1.44" stroke-linecap="square" stroke-linejoin="bevel" d="M15.795 0L0.045 9.135L0 27.72L15.975 36.675L31.455 27.585L31.41 9.135Z"/><path id="shape02" transform="matrix(1.00067390166067 0 0 1.00067390166067 147.690377653738 24.645270621123)" fill="none" stroke="#a4a4a4" stroke-width="0.72" stroke-linecap="square" stroke-linejoin="bevel" d="M15.795 0L0.045 9.135L0 27.72L15.975 36.675L31.455 27.585L31.41 9.135Z"/><path id="shape03" transform="translate(154.08, 54.24)" fill="#ffffff" fill-opacity="0.698039215686274" fill-rule="evenodd" stroke="#a4a4a4" stroke-width="0.48" stroke-linecap="square" stroke-linejoin="bevel" d="M0 0L18.72 0L9.6 4.8Z"/><path id="shape1" transform="translate(152.88, 53.52)" fill="none" stroke="#1f1f1f" stroke-width="0.96" stroke-linecap="square" stroke-linejoin="miter" stroke-miterlimit="2" d="M21.6 0L0 0"/>
</svg>
